<?xml version="1.0" encoding="utf-8"?>
<!-- Generator: Adobe Illustrator 16.0.0, SVG Export Plug-In . SVG Version: 6.00 Build 0)  -->
<!DOCTYPE svg PUBLIC "-//W3C//DTD SVG 1.1//EN" "http://www.w3.org/Graphics/SVG/1.1/DTD/svg11.dtd">
<svg version="1.1" id="Layer_1" xmlns:sketch="http://www.bohemiancoding.com/sketch/ns"
	 xmlns="http://www.w3.org/2000/svg" xmlns:xlink="http://www.w3.org/1999/xlink" x="0px" y="0px" width="60px" height="60px"
	 viewBox="0 0 60 60" enable-background="new 0 0 60 60" xml:space="preserve">
<title></title>
<desc></desc>
<g id="soical">
	<g id="social" transform="translate(-1073.000000, -638.000000)">
		<g id="slices" transform="translate(173.000000, 138.000000)">
		</g>
		<g id="square-flat" transform="translate(173.000000, 138.000000)">
			<path id="square-60" fill="#424242" d="M902.996,500h54.008c1.654,0,2.996,1.337,2.996,2.996v54.008
				c0,1.654-1.338,2.996-2.996,2.996h-54.008c-1.655,0-2.996-1.338-2.996-2.996v-54.008C900,501.341,901.337,500,902.996,500z"/>
		</g>
		<g id="icon" transform="translate(182.000000, 150.000000)">
			<path id="github" fill="#FFFFFF" d="M916.425,535.518c0-0.45-0.016-1.641-0.025-3.221c-5.135,1.144-6.219-2.538-6.219-2.538
				c-0.84-2.187-2.05-2.769-2.05-2.769c-1.676-1.176,0.127-1.15,0.127-1.15c1.853,0.133,2.828,1.951,2.828,1.951
				c1.647,2.892,4.32,2.058,5.374,1.572c0.167-1.223,0.645-2.058,1.172-2.53c-4.1-0.478-8.41-2.103-8.41-9.356
				c0-2.066,0.72-3.756,1.901-5.079c-0.189-0.479-0.824-2.403,0.181-5.01c0,0,1.55-0.509,5.076,1.94
				c1.472-0.419,3.052-0.631,4.623-0.638c1.567,0.007,3.146,0.218,4.622,0.638c3.523-2.45,5.071-1.94,5.071-1.94
				c1.008,2.605,0.374,4.53,0.184,5.01c1.183,1.323,1.897,3.013,1.897,5.079c0,7.272-4.317,8.873-8.43,9.341
				c0.664,0.584,1.253,1.738,1.253,3.506c0,2.53-0.023,4.572-0.023,5.193c0,0.506,0.333,1.094,1.271,0.909
				c7.329-2.508,12.613-9.599,12.613-17.958c0-10.455-8.266-18.93-18.461-18.93c-10.194,0-18.461,8.475-18.461,18.93
				c0.001,8.362,5.291,15.458,12.626,17.961C916.087,536.602,916.425,536.018,916.425,535.518z"/>
		</g>
	</g>
</g>
</svg>
